<svg width="1200" height="46" viewBox="0 0 1200 46" fill="none" xmlns="http://www.w3.org/2000/svg">
<g clip-path="url(#clip0_169_413)">
<path fill-rule="evenodd" clip-rule="evenodd" d="M109.051 31.4937C106.834 33.7522 104.184 34.8884 101.109 34.8884C98.6235 34.8884 96.5117 34.3794 94.3563 33.1208V27.9402C96.0896 29.1214 98.2675 30.2464 100.417 30.2464C104.9 30.2464 107.569 27.1484 107.569 22.7553C107.569 18.3594 104.808 15.1686 100.323 15.1686C98.321 15.1686 96.6974 15.8914 95.4284 17.3412C94.0693 18.912 93.3659 21.1578 93.3659 24.125V44.5817H93.0282C92.4394 44.5802 91.8567 44.4629 91.3132 44.2363C90.7698 44.0097 90.2763 43.6783 89.861 43.2611C89.4457 42.8439 89.1167 42.349 88.8927 41.8047C88.6687 41.2604 88.5542 40.6773 88.5557 40.0887V23.3586C88.5557 16.2584 92.8763 10.5266 100.303 10.5266C103.968 10.5266 106.947 11.7852 109.205 14.3164C111.328 16.6803 112.379 19.6756 112.379 23.2812C112.379 26.4875 111.269 29.2311 109.051 31.4937ZM161.137 31.3194C158.929 33.7002 156.087 34.8884 152.643 34.8884C149.006 34.8884 146.042 33.6284 143.786 31.0986C141.665 28.7052 140.612 25.707 140.612 22.1352C140.612 15.8112 145.47 10.5266 151.865 10.5266C154.331 10.5266 156.472 11.0497 158.635 12.2422V17.4734C156.901 16.2922 154.723 15.1672 152.574 15.1672C148.091 15.1672 145.421 18.2666 145.421 22.6611C145.421 26.9952 148.246 30.2478 152.667 30.2478C154.667 30.2478 156.316 29.4941 157.633 27.9767C158.944 26.4678 159.625 24.2516 159.625 21.2759V4.99297C159.624 4.40442 159.738 3.82134 159.962 3.27703C160.186 2.73272 160.515 2.23783 160.93 1.82062C161.346 1.4034 161.839 1.07204 162.383 0.845452C162.926 0.61886 163.509 0.501476 164.098 0.5L164.435 0.5V22.0395C164.435 25.8322 163.344 28.9372 161.137 31.3194ZM174.721 8.22734C174.216 8.79547 173.493 9.05703 172.611 9.05703C170.959 9.05703 169.777 7.83359 169.777 6.18687C169.777 4.50219 170.937 3.36453 172.609 3.36453C174.22 3.36453 175.443 4.56406 175.443 6.18687C175.443 6.98844 175.209 7.6775 174.721 8.22594V8.22734ZM199.165 21.2759C199.165 19.3705 198.447 17.8616 197.006 16.7197C195.708 15.6917 194.086 15.1686 192.112 15.1686C187.757 15.1686 184.962 18.5872 184.962 22.8045C184.962 26.8616 187.926 30.2478 192.067 30.2478C194.947 30.2478 196.486 28.5575 198.129 26.4509V32.5217C197.292 33.1517 196.33 33.8394 195.348 34.2416C194.311 34.6775 193.073 34.8884 191.642 34.8884C184.719 34.8884 180.152 29.127 180.152 22.4698C180.152 19.0512 181.208 16.2247 183.337 14.0211C185.595 11.6853 188.557 10.5266 192.184 10.5266C199.058 10.5266 203.976 14.4922 203.976 21.657V34.4117H203.638C203.049 34.4102 202.466 34.2928 201.923 34.0662C201.379 33.8395 200.886 33.508 200.47 33.0907C200.055 32.6733 199.726 32.1783 199.502 31.6338C199.278 31.0893 199.163 30.5061 199.165 29.9173V21.2759ZM133.31 19.9062C132.703 18.0177 131.94 17.0881 130.187 16.1052C126.019 13.7652 121.915 15.7578 120.007 19.888L133.31 19.9062ZM129.64 34.8167C126.567 35.4734 123.552 34.9672 120.61 33.3162C117.74 31.7061 115.82 29.3127 114.856 26.1486C112.909 19.7502 116.898 12.6205 123.314 10.895C126.494 10.0386 129.544 10.4267 132.441 12.0523C137.253 14.7552 139.006 18.9345 138.7 24.3205L119.319 24.2797C119.605 26.4762 120.959 28.1947 122.864 29.2634C124.797 30.3477 126.573 30.6078 128.22 30.0931C130.049 29.5166 131.535 28.0161 132.742 26.6197L136.691 29.5109C135.08 32.4078 132.887 34.122 129.64 34.8153V34.8167ZM170.205 11.0047H175.015V34.4117H174.677C174.089 34.4102 173.506 34.2928 172.962 34.0661C172.419 33.8395 171.925 33.508 171.51 33.0906C171.094 32.6732 170.765 32.1782 170.542 31.6337C170.318 31.0892 170.203 30.506 170.205 29.9173V11.0033V11.0047ZM7.04012 34.4103C2.33406 34.4103 1.41586e-05 31.1956 1.41586e-05 26.7069V9.67297C-0.00146575 9.08424 0.113082 8.50098 0.337118 7.95649C0.561153 7.41201 0.890289 6.91696 1.30573 6.49962C1.72118 6.08228 2.21479 5.75081 2.75839 5.52415C3.302 5.29749 3.88494 5.18007 4.47395 5.17859H4.8116V11.0047H12.9392V15.6453H4.8116V27.2441C4.8116 29.2156 5.68669 29.7697 7.56349 29.7697H12.9378V34.4103H7.04153H7.04012ZM34.9783 31.453C32.6006 33.7409 29.7446 34.8884 26.4272 34.8884C23.1392 34.8884 20.2987 33.7395 17.9225 31.453C15.5378 29.1552 14.349 26.2316 14.349 22.7075C14.349 15.8337 19.5742 10.5266 26.4272 10.5266C29.7151 10.5266 32.564 11.6839 34.9544 13.9887C37.3545 16.2992 38.5532 19.2144 38.5532 22.7075C38.5532 26.2316 37.363 29.1552 34.9797 31.453H34.9783ZM57.4717 16.6367C56.7655 17.825 56.2182 18.6786 55.8327 19.1933C55.4092 19.753 54.99 20.2002 54.5749 20.5095C57.9177 21.5952 59.1628 23.9211 59.1628 27.3875V34.4103H58.8252C57.6359 34.4073 56.4964 33.9323 55.6575 33.0898C54.8185 32.2472 54.3486 31.1061 54.3512 29.9173V27.8642C54.3512 25.6198 53.3495 24.0969 50.9831 24.0969H46.6105V34.4103H46.2728C45.0839 34.407 43.945 33.9318 43.1065 33.0892C42.2681 32.2466 41.7987 31.1057 41.8017 29.9173V4.99297C41.8001 4.40449 41.9144 3.82144 42.1382 3.27714C42.362 2.73283 42.6909 2.23793 43.1061 1.8207C43.5213 1.40347 44.0147 1.07209 44.558 0.845479C45.1014 0.61887 45.6841 0.501475 46.2728 0.5L46.6105 0.5V19.4084H48.0329C49.5945 19.4084 50.6216 18.8712 51.2125 17.8559L55.2517 11.0061L60.7343 11.0005L57.4689 16.6367H57.4717ZM82.3035 31.453C79.9258 33.7409 77.0698 34.8884 73.7523 34.8884C70.4644 34.8884 67.6253 33.7395 65.2477 31.453C62.863 29.1552 61.6741 26.2316 61.6741 22.7075C61.6741 15.8337 66.8994 10.5266 73.7523 10.5266C77.0417 10.5266 79.8892 11.6839 82.281 13.9887C84.6797 16.2992 85.8784 19.2144 85.8784 22.7075C85.8784 26.2316 84.6882 29.1552 82.3049 31.453H82.3035ZM78.8312 17.2611C77.506 15.8675 75.8219 15.1686 73.7523 15.1686C69.3248 15.1686 66.6757 18.41 66.6757 22.7075C66.6757 26.9459 69.3882 30.2478 73.7523 30.2478C78.118 30.2478 80.829 26.9459 80.829 22.7075C80.829 20.4575 80.1565 18.6519 78.8312 17.2611ZM31.5075 17.2611C30.1822 15.8675 28.4967 15.1686 26.4286 15.1686C22.0011 15.1686 19.3519 18.41 19.3519 22.7075C19.3519 26.9459 22.0644 30.2478 26.4286 30.2478C30.7928 30.2478 33.5053 26.9459 33.5053 22.7075C33.5053 20.4575 32.8328 18.6519 31.5075 17.2611Z" fill="#03AC0E"/>
</g>
<g clip-path="url(#clip1_169_413)">
<path d="M445.916 14.4824H446.057C446.38 16.1256 446.521 16.8744 446.849 18.0669L448.758 26.1373H443.17L445.078 18.0669C445.358 16.8744 445.544 16.1256 445.915 14.4824M450.988 35.6516H456.25L449.642 10.494H442.472L435.815 35.6533H440.796L442.284 30.0235H449.5L450.988 35.6516ZM424.409 35.9983C427.296 35.9983 430.089 35.2529 431.906 34.4556V21.856H423.804V25.8895H427.112V31.5159C426.505 31.9145 425.478 32.1659 424.366 32.1659C420.921 32.1659 419.849 30.3233 419.849 24.9951V21.752C419.849 16.474 420.871 13.8827 424.037 13.8827C426.225 13.8827 426.974 15.4773 427.023 17.1725H432.004C431.949 12.7387 428.973 10 424.036 10C417.143 10 414.633 14.2813 414.633 21.2095V24.8963C414.585 32.4155 416.962 36 424.408 36M401.091 14.4824H401.233C401.557 16.1256 401.699 16.8744 402.022 18.0669L403.934 26.1373H398.347L400.255 18.0669C400.533 16.8744 400.719 16.1256 401.091 14.4824ZM406.166 35.6533H411.422L404.817 10.494H397.643L390.993 35.6533H395.974L397.462 30.0235H404.675L406.166 35.6516V35.6533ZM381.027 35.6533H386.007V10.494H381.027V35.6533ZM367.342 36C372.879 36 375.58 33.2579 375.719 28.1341H370.694C370.601 30.6232 369.853 32.1659 367.483 32.1659C364.785 32.1659 363.763 30.1257 363.763 24.8963V21.2095C363.763 15.928 364.785 13.9381 367.483 13.9381C369.999 13.9381 370.416 15.7321 370.507 17.6249H375.533C375.484 13.2413 373.159 10.104 367.344 10.104C360.872 10.104 358.501 14.4373 358.501 21.2095V24.8963C358.501 31.7187 360.87 36 367.342 36ZM333.64 35.6533H338.064V21.0587C338.064 19.0168 337.967 16.526 337.873 14.4824H338.019C338.714 17.072 339.086 18.4171 339.738 20.3584L344.907 35.6533H352.168V10.494H347.745V24.4959C347.745 26.3332 347.793 28.7772 347.839 31.1172H347.7C347.328 29.3717 346.998 27.628 346.021 24.7905L341.181 10.4957H333.596V35.6533H333.64ZM313.344 35.6533H326.89V31.6147H318.325V24.6415H326.096V20.5612H318.323V14.4824H326.563V10.4472H313.339V35.6499L313.344 35.6533ZM295.146 35.6533H308.18V31.6147H300.127V10.4957H295.146V35.6533ZM279.692 14.4807H279.833C280.156 16.1239 280.302 16.8727 280.625 18.0652L282.533 26.1356H276.949L278.857 18.0652C279.136 16.8727 279.323 16.1239 279.694 14.4807M284.767 35.6533H290.027L283.416 10.494H276.249L269.591 35.6533H274.572L276.06 30.0235H283.277L284.768 35.6516L284.767 35.6533ZM254.276 31.8157V24.4976H257.304C259.864 24.4976 261.072 25.7421 261.072 28.1792C261.072 30.8659 259.49 31.8677 257.21 31.8677H254.276V31.8157ZM254.276 20.6583V14.3333H257.397C259.674 14.3333 260.653 15.4253 260.653 17.4707C260.653 19.516 259.542 20.66 257.444 20.66H254.276V20.6583ZM249.295 35.6533H258.093C263.025 35.6533 266.049 33.7553 266.049 28.5293C266.049 25.1909 264.238 22.9029 260.884 22.5493V22.4037C263.86 21.856 265.632 20.1123 265.632 16.7756C265.632 12.4388 263.303 10.4975 258.326 10.4975H249.25V35.6533H249.295Z" fill="#101913"/>
</g>
<g clip-path="url(#clip2_169_413)">
<path d="M602.034 28.52C602.034 23.2044 606.383 18.9111 611.767 18.9111C617.15 18.9111 621.499 23.2044 621.499 28.52C621.499 33.8356 617.15 38.1289 611.767 38.1289C606.383 38.1289 602.034 33.9378 602.034 28.52ZM641.792 28.52C641.792 23.2044 646.141 18.9111 651.525 18.9111C656.908 18.9111 661.257 23.2044 661.257 28.52C661.257 33.8356 656.908 38.1289 651.525 38.1289C646.141 38.2311 641.792 33.9378 641.792 28.52ZM549.541 28.52C549.541 23.2044 553.89 18.9111 559.273 18.9111C564.657 18.9111 569.006 23.2044 569.006 28.52C569.006 33.8356 564.657 38.1289 559.273 38.1289C553.89 38.2311 549.541 33.9378 549.541 28.52ZM509.783 28.52C509.783 23.2044 514.131 18.9111 519.515 18.9111C524.899 18.9111 529.248 23.2044 529.248 28.52C529.248 33.8356 524.899 38.1289 519.515 38.1289C514.131 38.2311 509.783 33.9378 509.783 28.52ZM590.231 11.4489H581.741V45.1822H590.231V11.4489ZM529.248 45.2844H537.738V11.5511H529.248V14.3111C526.349 12.3689 522.932 11.2444 519.101 11.2444C509.369 11.1422 501.5 18.9111 501.5 28.52C501.5 38.2311 509.369 46 519.205 46C522.932 46 526.452 44.8756 529.351 42.9333V45.2844H529.248ZM661.257 45.2844H669.747V11.5511H661.257V14.3111C658.358 12.3689 654.941 11.2444 651.11 11.2444C641.378 11.2444 633.406 19.0133 633.406 28.7244C633.406 38.4356 641.274 46.2044 651.11 46.2044C654.838 46.2044 658.358 45.08 661.257 43.1378V45.2844ZM672.853 34.3467C673.164 41.1956 678.962 46 688.901 46C696.977 46 703.604 42.5244 703.604 34.96C703.604 29.6444 700.601 26.5778 693.664 25.2489L688.28 24.2267C684.76 23.6133 682.379 22.8978 682.379 20.8533C682.379 18.6044 684.76 17.5822 687.659 17.5822C691.904 17.5822 693.664 19.7289 693.768 22.1822H702.361C701.843 15.5378 696.563 11.1422 687.866 11.1422C678.962 11.1422 673.681 15.9467 673.681 22.2844C673.681 29.9511 679.997 31.1778 685.381 32.2L689.833 33.0178C693.043 33.6311 694.492 34.5511 694.492 36.3911C694.492 38.0267 692.836 39.6622 689.108 39.6622C683.517 39.6622 681.757 36.8 681.654 34.3467H672.853ZM569.006 0V14.2089C566.107 12.2667 562.69 11.1422 558.859 11.1422C549.127 11.1422 541.155 18.9111 541.155 28.6222C541.258 38.2311 549.127 46 558.963 46C562.69 46 566.21 44.8756 569.109 42.9333V45.2844H577.599V0H569.006ZM621.499 0V14.2089C618.6 12.2667 615.183 11.1422 611.352 11.1422C601.62 11.1422 593.648 18.9111 593.648 28.6222C593.648 38.3333 601.516 46.1022 611.352 46.1022C615.08 46.1022 618.6 44.9778 621.499 43.0356V45.3867H629.989V0H621.499ZM581.741 0V8.38222H590.231V0" fill="#101913"/>
</g>
<g clip-path="url(#clip3_169_413)">
<path d="M757.043 32.4C755.425 29.8667 754.414 26.4 754.414 23.0667C754.414 19.8 755.29 16.6667 756.841 14L757.043 13.6667C758.594 10.6 762.032 8.53333 765.404 8.53333C767.629 8.53333 769.921 9.2 771.741 10.1333C775.045 12.1333 777.675 15.2 779.158 18.8V13.3333C779.158 12.1333 777.27 10.7333 777.27 10.7333C774.034 8.4 770.056 7 765.741 7C763.988 7 761.56 7.46667 761.56 7.46667C754.211 9.06667 748.75 15.4667 748.75 23.0667C748.75 31.2 754.953 37.9333 762.976 38.8C762.976 38.8 764.594 39.0667 765.741 39C770.393 39 774.708 37.4 778.079 34.6667L778.551 34.2C778.956 33.6667 779.225 33 779.225 32.3333V27.8C779.225 26.4667 779.9 25.2667 780.911 24.5333H772.213C773.225 25.2667 773.899 26.4667 773.899 27.8L773.966 32.0667C773.966 32.9333 773.629 33.6667 773.09 34.2667C772.416 35.0667 769.719 36.4 769.719 36.4C768.438 37.0667 766.954 37.4667 765.336 37.4667C761.695 37.3333 758.594 35.3333 757.043 32.4Z" fill="#1B1B1B"/>
<path d="M844.558 23C844.558 30.6 850.02 36.8667 857.234 38.4C857.234 38.4 859.661 38.8667 861.414 38.8667C865.729 38.8667 869.64 37.5333 872.876 35.2C872.876 35.2 874.831 34 874.831 32.8L875.573 27C873.348 32.4667 869.572 34.5333 867.415 35.7333C865.594 36.6667 863.235 37.3333 861.077 37.3333C857.706 37.3333 854.267 35.4667 852.717 32.4L852.514 32.0667C850.964 29.4 850.087 26.3333 850.087 23C850.087 19.7333 850.964 16.6 852.514 13.9333L852.717 13.6C854.267 10.5333 857.706 8.46667 861.077 8.46667C863.302 8.46667 865.594 9.13333 867.415 10.0667C870.719 12.0667 873.348 15.1333 874.831 18.7333V13.2667C874.831 12.0667 872.944 10.6667 872.944 10.6667C869.707 8.33333 865.729 7 861.414 7C859.661 7 857.234 7.46667 857.234 7.46667C849.952 8.93333 844.558 15.3333 844.558 23Z" fill="#1B1B1B"/>
<path d="M894.519 23C894.519 30.6 899.98 36.8667 907.195 38.4C907.195 38.4 909.622 38.8667 911.375 38.8667C915.69 38.8667 919.6 37.5333 922.837 35.2C922.837 35.2 924.792 34 924.792 32.7333L925.534 26.9333C923.309 32.4 919.533 34.4667 917.376 35.6667C915.555 36.6 913.195 37.2667 911.038 37.2667C907.667 37.2667 904.228 35.3333 902.677 32.3333L902.475 32C900.924 29.3333 900.048 26.2667 900.048 22.9333C900.048 19.6667 900.924 16.5333 902.475 13.8667L902.677 13.5333C904.228 10.4667 907.667 8.4 911.038 8.4C913.263 8.4 915.555 9.06667 917.376 10C920.679 12 923.309 15.0667 924.792 18.6667V13.3333C924.792 12.1333 922.904 10.7333 922.904 10.7333C919.735 8.4 915.757 7 911.442 7C909.689 7 907.262 7.46667 907.262 7.46667C899.98 9 894.519 15.4 894.519 23Z" fill="#1B1B1B"/>
<path d="M950.75 8.39999H942.39C943.401 9.13333 944.075 10.2667 944.075 11.6V35.6667C944.075 36.9333 943.468 38.1333 942.457 38.8H950.615C949.671 38.0667 948.997 36.9333 948.997 35.6667V11.6C949.064 10.2667 949.671 9.06666 950.75 8.39999Z" fill="#1B1B1B"/>
<path d="M806.329 8.39999H797.969C798.98 9.13333 799.655 10.3333 799.655 11.6667V29.6667C799.924 32.9333 802.014 35.7333 804.914 37.0667C807.273 38.2 809.903 38.8667 812.735 38.8667C815.566 38.8667 818.331 38.2667 820.691 37.0667H820.758C823.657 35.7333 825.747 32.9333 826.017 29.6667V11.5333C826.017 10.2 826.691 9.06666 827.703 8.39999H822.848C823.859 9.13333 824.534 10.2 824.534 11.5333V29.6667V29.7333C824.331 31.7333 823.32 33.4667 821.904 34.6667L821.837 34.7333C820.219 36 817.319 36.9333 814.555 36.9333C812.869 36.9333 811.251 36.6 809.701 36L809.566 35.9333C806.869 35 804.914 32.5333 804.576 29.6V29.5333V11.6667C804.576 10.2667 805.318 9.06666 806.329 8.39999Z" fill="#1B1B1B"/>
</g>
<g clip-path="url(#clip4_169_413)">
<path fill-rule="evenodd" clip-rule="evenodd" d="M1010.01 24.3508L1006.27 8.90968C1006.17 8.48725 1005.98 8.09074 1005.71 7.74491C1005.45 7.39908 1005.12 7.11136 1004.74 6.89973C1004.36 6.6881 1003.94 6.5571 1003.51 6.51491C1003.08 6.47273 1002.64 6.52027 1002.23 6.65456L998.185 7.97385C997.772 8.10755 997.391 8.32524 997.066 8.6133C996.741 8.90134 996.479 9.25357 996.295 9.64795C996.112 10.0423 996.012 10.4704 996.001 10.9054C995.99 11.3403 996.069 11.7729 996.232 12.1759L1002.26 26.873C1002.56 27.6122 1003.13 28.21 1003.86 28.5466C1004.58 28.8831 1005.4 28.9334 1006.16 28.6875L1007.92 28.1124C1008.68 27.8656 1009.31 27.3407 1009.7 26.6429C1010.09 25.9451 1010.2 25.1262 1010.01 24.3508ZM1010.57 39.2898C1009.76 39.5534 1008.88 39.5695 1008.06 39.336C1007.24 39.1026 1006.51 38.6301 1005.95 37.9782C1005.4 37.3264 1005.05 36.5243 1004.95 35.6733C1004.85 34.8223 1005 33.9605 1005.39 33.1967C1005.77 32.433 1006.38 31.8014 1007.12 31.3818C1007.87 30.9623 1008.72 30.7735 1009.57 30.8393C1010.42 30.9051 1011.24 31.2225 1011.91 31.7516C1012.58 32.2806 1013.08 32.9975 1013.35 33.8118C1013.53 34.3544 1013.59 34.9269 1013.55 35.4962C1013.51 36.0656 1013.35 36.6207 1013.09 37.1297C1012.84 37.6387 1012.48 38.0916 1012.05 38.4622C1011.61 38.8329 1011.11 39.1141 1010.57 39.2898ZM1019.55 35.3251C1025.1 33.5173 1029.58 27.1012 1027.35 20.2217C1025.12 13.3469 1017.74 10.7927 1012.19 12.6005C1011.57 12.803 1011.04 13.2346 1010.73 13.8084C1010.41 14.3822 1010.32 15.0557 1010.47 15.6933L1011.03 18.0054C1011.12 18.3525 1011.28 18.6783 1011.49 18.9624C1011.71 19.2464 1011.98 19.4828 1012.29 19.6567C1012.6 19.8305 1012.95 19.9382 1013.3 19.973C1013.66 20.0078 1014.02 19.9689 1014.35 19.8588L1014.58 19.7858C1015.13 19.5901 1015.71 19.5067 1016.3 19.5406C1016.88 19.5745 1017.45 19.7249 1017.97 19.9831C1018.49 20.2412 1018.96 20.6017 1019.34 21.0434C1019.72 21.4851 1020.01 21.999 1020.19 22.5547C1020.37 23.1105 1020.44 23.6968 1020.39 24.279C1020.34 24.8612 1020.17 25.4276 1019.9 25.9446C1019.63 26.4616 1019.26 26.9187 1018.81 27.2892C1018.36 27.6595 1017.84 27.9356 1017.28 28.101L1017.05 28.174C1016.71 28.285 1016.4 28.4649 1016.13 28.7023C1015.87 28.9398 1015.65 29.2297 1015.5 29.5539C1015.35 29.8781 1015.27 30.2298 1015.26 30.5869C1015.26 30.9441 1015.32 31.2991 1015.46 31.6297L1016.35 33.8346C1016.6 34.4427 1017.07 34.9345 1017.66 35.211C1018.25 35.4875 1018.93 35.5283 1019.55 35.3251Z" fill="#E31E52"/>
<path fill-rule="evenodd" clip-rule="evenodd" d="M1044.58 17.6516C1047.53 16.0676 1051.17 16.3574 1053.63 18.8248C1055.99 21.1986 1056.04 24.611 1056.04 25.9531C1056.04 29.7534 1054.29 32.9558 1050.96 33.9418C1046.52 35.3045 1039.73 34.1016 1039.73 34.1016C1039.58 34.0848 1039.44 34.0128 1039.34 33.8996C1039.24 33.7864 1039.18 33.6397 1039.18 33.4876V12.4886C1039.18 12.356 1039.23 12.2289 1039.33 12.1351C1039.42 12.0414 1039.55 11.9887 1039.68 11.9887H1043.84C1043.97 11.9887 1044.1 12.0414 1044.19 12.1351C1044.29 12.2289 1044.34 12.356 1044.34 12.4886V17.5101C1044.34 17.5389 1044.35 17.5671 1044.36 17.592C1044.38 17.6169 1044.4 17.6375 1044.42 17.6519C1044.45 17.6661 1044.47 17.6737 1044.5 17.6736C1044.53 17.6736 1044.56 17.666 1044.58 17.6516ZM1044.54 29.6873C1045.82 30.0479 1048.37 30.1848 1049.83 28.6624V28.667C1050.84 27.69 1052.01 24.5311 1049.65 22.171C1048.66 21.153 1047.04 20.6029 1044.78 21.5478C1044.65 21.6119 1044.53 21.713 1044.46 21.8392C1044.38 21.9654 1044.34 22.1114 1044.34 22.26V29.3997C1044.34 29.4631 1044.36 29.5256 1044.39 29.5775C1044.43 29.6294 1044.48 29.6679 1044.54 29.6873ZM1116.62 12.5023V34.2226C1116.62 34.3108 1116.66 34.3952 1116.72 34.4576C1116.78 34.52 1116.87 34.5553 1116.95 34.5559H1121.48C1121.57 34.5559 1121.65 34.5208 1121.71 34.4584C1121.78 34.396 1121.81 34.3112 1121.81 34.2226V12.5023C1121.81 12.3698 1121.76 12.2426 1121.67 12.1489C1121.57 12.0551 1121.45 12.0025 1121.31 12.0025H1117.12C1116.99 12.0037 1116.86 12.0569 1116.77 12.1505C1116.67 12.2441 1116.62 12.3705 1116.62 12.5023ZM1076.22 30.7144C1075.96 30.6786 1075.72 30.5789 1075.52 30.4245C1075.29 30.2237 1075.17 29.8699 1075.14 29.2947V17.2773C1075.14 17.1619 1075.1 17.0513 1075.02 16.9697C1074.93 16.8881 1074.82 16.8419 1074.71 16.8414H1070.44C1070.33 16.8414 1070.22 16.8873 1070.14 16.9691C1070.06 17.0508 1070.01 17.1617 1070.01 17.2773V28.425C1070.01 28.4417 1070.01 28.4586 1070.01 28.4753C1069.6 29.9269 1067.9 30.3652 1066.57 30.1392C1064.68 29.8197 1063.89 28.2265 1063.96 26.3913C1063.96 26.3275 1063.98 17.8982 1063.99 17.2773C1063.99 17.1617 1063.94 17.0508 1063.86 16.9691C1063.78 16.8873 1063.67 16.8414 1063.55 16.8414H1059.3C1059.18 16.8414 1059.07 16.8867 1058.99 16.9676C1058.91 17.0484 1058.87 17.1581 1058.86 17.2728C1058.86 19.0987 1058.85 27.8772 1058.85 27.8772C1058.85 29.2467 1059.28 33.6839 1063.73 34.4965C1065.82 34.8777 1068.3 34.2043 1070.31 32.771C1070.33 32.7571 1070.35 32.7471 1070.38 32.7417C1070.4 32.7362 1070.42 32.7354 1070.44 32.7392C1070.47 32.7431 1070.49 32.7515 1070.51 32.764C1070.53 32.7765 1070.54 32.7928 1070.56 32.812C1071.04 33.4817 1071.73 33.9746 1072.52 34.2158C1073.69 34.6028 1075.29 34.4467 1075.77 34.3995L1075.78 34.3984C1075.86 34.39 1075.93 34.356 1075.98 34.3021C1076.03 34.2482 1076.07 34.1774 1076.08 34.1016L1076.48 31.0979C1076.5 31.0117 1076.48 30.9228 1076.43 30.8509C1076.38 30.7791 1076.3 30.73 1076.22 30.7144ZM1161.54 24.1567C1161.39 22.2007 1160.78 20.1601 1159.55 18.6787L1159.51 18.6387L1159.48 18.6006C1158.97 17.9852 1157.61 16.3398 1153.42 16.3529C1151.7 16.3529 1149.98 16.4693 1148.27 16.6336C1147.29 16.7227 1146.31 16.8231 1145.33 16.9258C1144.7 16.9924 1144.7 17.3771 1144.7 17.8947C1144.7 17.9266 1144.7 17.9589 1144.7 17.9918V38.7214C1144.69 38.8222 1144.7 38.9246 1144.73 39.0225C1144.75 39.1204 1144.8 39.2121 1144.86 39.292C1145.02 39.4037 1145.21 39.4526 1145.4 39.429H1149.14C1149.23 39.4551 1149.33 39.4566 1149.42 39.4334C1149.52 39.4102 1149.6 39.363 1149.67 39.2966C1149.74 39.2301 1149.79 39.1466 1149.82 39.0546C1149.84 38.9625 1149.85 38.8649 1149.82 38.7716C1149.83 37.5675 1149.83 36.3795 1149.83 35.1876C1149.83 34.5901 1149.82 33.9916 1149.82 33.3895C1149.82 33.3575 1149.83 33.3261 1149.85 33.299C1149.87 33.2718 1149.89 33.25 1149.92 33.2363C1149.95 33.2227 1149.98 33.2175 1150.01 33.2216C1150.04 33.2257 1150.07 33.2388 1150.1 33.2594C1151.59 34.5627 1153.82 34.9233 1155.74 34.3664C1157.77 33.7821 1159.45 32.2209 1160.42 30.3333C1161.39 28.4456 1161.7 26.2749 1161.54 24.1567ZM1156.31 26.6538C1155.88 28.3315 1155.11 29.6211 1152.81 29.7603C1151.66 29.8265 1149.83 29.1737 1149.83 28.0987V21.6689C1149.83 21.4223 1149.85 21.242 1150.09 21.1348C1150.59 20.9065 1151.91 20.7216 1152.93 20.7535C1157.31 20.8791 1156.53 25.8253 1156.32 26.6538H1156.31ZM1089.62 25.0744C1089.25 25.5925 1089.25 25.7682 1089.59 26.2521L1095.63 34.0378C1095.66 34.0877 1095.69 34.1467 1095.69 34.208C1095.69 34.2692 1095.68 34.3305 1095.65 34.3847C1095.62 34.4398 1095.58 34.486 1095.53 34.5179C1095.48 34.5498 1095.42 34.5662 1095.36 34.565H1090.38C1090.33 34.5648 1090.28 34.5509 1090.23 34.5246C1090.18 34.4983 1090.14 34.4605 1090.11 34.4144L1084.91 27.6536C1084.88 27.6125 1084.83 27.5823 1084.78 27.567C1084.73 27.5517 1084.68 27.552 1084.63 27.5679C1084.58 27.5838 1084.54 27.6146 1084.51 27.656C1084.47 27.6974 1084.46 27.7475 1084.45 27.7997V34.2318C1084.45 34.3203 1084.42 34.4051 1084.36 34.4675C1084.29 34.53 1084.21 34.565 1084.12 34.565H1079.63C1079.54 34.5644 1079.46 34.5291 1079.4 34.4668C1079.33 34.4044 1079.3 34.32 1079.3 34.2318V12.5023C1079.3 12.4361 1079.31 12.3704 1079.34 12.3091C1079.36 12.2478 1079.4 12.192 1079.44 12.1451C1079.49 12.0982 1079.55 12.061 1079.61 12.0357C1079.67 12.0105 1079.73 11.9976 1079.8 11.9979H1083.95C1084.09 11.9979 1084.21 12.0506 1084.31 12.1443C1084.4 12.2381 1084.45 12.3652 1084.45 12.4978V23.9103C1084.45 23.9568 1084.47 24.0018 1084.5 24.0391C1084.53 24.0765 1084.56 24.1043 1084.61 24.1189C1084.65 24.1336 1084.7 24.1344 1084.74 24.1212C1084.79 24.1079 1084.83 24.0813 1084.86 24.0449C1085.86 22.6754 1089.31 17.8229 1089.86 17.0308C1089.89 16.9863 1089.93 16.95 1089.98 16.9249C1090.03 16.8999 1090.08 16.8868 1090.14 16.887H1094.99C1095.05 16.8854 1095.12 16.9023 1095.17 16.9356C1095.22 16.9689 1095.26 17.0171 1095.29 17.0742C1095.32 17.1298 1095.33 17.1927 1095.32 17.255C1095.32 17.3174 1095.29 17.3767 1095.26 17.4257L1089.62 25.0744ZM1193.79 26.2521C1193.45 25.7682 1193.45 25.5925 1193.81 25.0744L1199.46 17.4257C1199.5 17.3761 1199.52 17.317 1199.53 17.2549C1199.53 17.1929 1199.52 17.1305 1199.5 17.0745C1199.47 17.0186 1199.43 16.9715 1199.37 16.9383C1199.32 16.9052 1199.26 16.8874 1199.2 16.887H1194.33C1194.28 16.8867 1194.23 16.8996 1194.18 16.9247C1194.13 16.9498 1194.09 16.9862 1194.06 17.0308C1193.51 17.8229 1190.06 22.6754 1189.05 24.0449C1189.03 24.0822 1188.99 24.1096 1188.94 24.1234C1188.9 24.1372 1188.85 24.1366 1188.8 24.1218C1188.76 24.1071 1188.72 24.0788 1188.69 24.041C1188.66 24.003 1188.65 23.9574 1188.65 23.9103V12.4978C1188.65 12.4321 1188.63 12.3671 1188.61 12.3065C1188.58 12.2458 1188.55 12.1907 1188.5 12.1443C1188.46 12.0979 1188.4 12.0611 1188.34 12.0359C1188.28 12.0108 1188.21 11.9979 1188.15 11.9979H1183.99C1183.92 11.9979 1183.86 12.0108 1183.8 12.0359C1183.74 12.0611 1183.68 12.0979 1183.63 12.1443C1183.59 12.1907 1183.55 12.2458 1183.53 12.3065C1183.5 12.3671 1183.49 12.4321 1183.49 12.4978V34.2272C1183.49 34.3158 1183.52 34.4005 1183.59 34.463C1183.65 34.5254 1183.73 34.5604 1183.82 34.5604H1188.31C1188.4 34.5598 1188.48 34.5245 1188.54 34.4621C1188.61 34.3998 1188.64 34.3154 1188.64 34.2272V27.7997C1188.65 27.7481 1188.67 27.6989 1188.7 27.6583C1188.73 27.6176 1188.77 27.5875 1188.82 27.5717C1188.87 27.5561 1188.92 27.5554 1188.97 27.57C1189.02 27.5846 1189.07 27.6137 1189.1 27.6536L1194.3 34.4144C1194.33 34.4603 1194.37 34.498 1194.42 34.5243C1194.46 34.5506 1194.52 34.5645 1194.57 34.565H1199.55C1199.61 34.5657 1199.67 34.5491 1199.72 34.5172C1199.77 34.4853 1199.81 34.4394 1199.84 34.3847C1199.87 34.3305 1199.88 34.269 1199.88 34.2075C1199.88 34.1461 1199.85 34.0872 1199.82 34.0378L1193.79 26.2521ZM1113.47 30.7113L1113.52 30.7235C1113.6 30.7427 1113.67 30.7927 1113.72 30.8634C1113.77 30.9341 1113.79 31.0203 1113.78 31.1047L1113.36 34.1085C1113.36 34.1836 1113.32 34.254 1113.27 34.3076C1113.22 34.3612 1113.15 34.3949 1113.07 34.4029L1112.99 34.4112C1112.42 34.4724 1110.64 34.6614 1109.36 34.0514C1108.75 33.7825 1108.23 33.3543 1107.84 32.812C1107.83 32.7935 1107.82 32.7776 1107.8 32.7651C1107.78 32.7527 1107.76 32.7442 1107.74 32.7399C1107.72 32.7356 1107.7 32.7357 1107.68 32.7403C1107.65 32.7448 1107.63 32.7537 1107.62 32.7663C1106.97 33.2366 1104.13 35.0671 1100.93 34.4737C1099.99 34.3117 1099.12 33.9081 1098.39 33.3028C1096 31.2485 1095.84 26.8409 1098.19 24.6452C1098.78 24.1519 1099.44 23.7586 1100.16 23.4811C1103.19 22.1641 1107.31 22.3605 1107.31 22.3605C1107.35 21.5707 1107.21 20.5618 1105.24 20.3838C1103.67 20.2094 1100.75 20.7234 1099.89 20.8758C1099.81 20.8889 1099.75 20.8994 1099.71 20.9065C1099.65 20.9185 1099.58 20.9174 1099.51 20.903C1099.45 20.8887 1099.39 20.8614 1099.33 20.8229C1099.28 20.7844 1099.23 20.7354 1099.2 20.6788C1099.16 20.6222 1099.14 20.5592 1099.13 20.4933L1098.19 17.6836C1098.18 17.6187 1098.18 17.5522 1098.19 17.488C1098.21 17.4238 1098.24 17.3631 1098.27 17.3095C1098.31 17.2558 1098.36 17.2102 1098.42 17.1753C1098.47 17.1404 1098.53 17.1169 1098.6 17.1061C1099.49 16.9646 1102 16.6062 1103.08 16.4898C1108.62 15.8299 1110.32 17.6622 1110.94 18.3334L1110.94 18.3337C1110.98 18.375 1111.01 18.412 1111.04 18.4437C1112.39 19.9592 1112.48 22.0956 1112.47 24.0198L1112.44 29.0413C1112.44 30.4758 1112.92 30.5875 1113.47 30.7113ZM1107.02 29.4704C1107.19 29.2946 1107.29 29.0588 1107.29 28.813V25.896C1107.29 25.5897 1106.47 25.6799 1106.26 25.7023C1106.24 25.7049 1106.22 25.7066 1106.22 25.7066C1104.82 25.896 1103.84 26.1562 1103.21 26.4849C1102.41 26.9094 1102 27.5509 1102 28.4022C1101.99 28.692 1102.05 28.9805 1102.17 29.245C1102.28 29.5096 1102.46 29.743 1102.69 29.9269C1104.37 31.1321 1106.48 30.0524 1107.02 29.4704ZM1141.61 30.7235L1141.55 30.7112C1141.02 30.5874 1140.53 30.4754 1140.53 29.0413L1140.56 24.0198C1140.58 22.0956 1140.48 19.9592 1139.14 18.4437C1139.11 18.4115 1139.07 18.3739 1139.03 18.3317V18.3317C1138.41 17.659 1136.71 15.8304 1131.17 16.4898C1130.09 16.6062 1127.59 16.9646 1126.69 17.1061C1126.56 17.129 1126.44 17.2026 1126.37 17.3107C1126.29 17.4189 1126.26 17.5529 1126.28 17.6836L1127.23 20.4933C1127.24 20.5592 1127.26 20.6222 1127.29 20.6788C1127.33 20.7354 1127.37 20.7844 1127.43 20.8229C1127.48 20.8614 1127.54 20.8887 1127.61 20.903C1127.67 20.9174 1127.74 20.9185 1127.81 20.9065L1127.84 20.8995C1128.46 20.7862 1131.66 20.2006 1133.33 20.3792C1135.29 20.5573 1135.44 21.5661 1135.4 22.3558C1135.4 22.3558 1131.27 22.1596 1128.25 23.4766C1127.53 23.755 1126.87 24.1481 1126.29 24.6407C1123.94 26.8364 1124.1 31.244 1126.49 33.2982C1127.22 33.9034 1128.09 34.3071 1129.02 34.4691C1132.23 35.0626 1135.06 33.232 1135.71 32.7618C1135.73 32.7492 1135.75 32.7403 1135.77 32.7357C1135.79 32.7311 1135.82 32.731 1135.84 32.7353C1135.86 32.7395 1135.88 32.7482 1135.9 32.7606C1135.92 32.773 1135.93 32.7889 1135.94 32.8074C1136.33 33.3497 1136.85 33.778 1137.46 34.0468C1138.73 34.6567 1140.51 34.4679 1141.09 34.4067L1141.17 34.3984C1141.24 34.3904 1141.31 34.3567 1141.37 34.3031C1141.42 34.2494 1141.45 34.1791 1141.46 34.1039L1141.88 31.1047C1141.9 31.0178 1141.87 30.9292 1141.82 30.8581C1141.77 30.7869 1141.69 30.7387 1141.61 30.7235ZM1135.39 28.813C1135.39 29.0588 1135.3 29.2946 1135.12 29.4704C1134.58 30.0524 1132.47 31.1321 1130.79 29.9269C1130.56 29.7429 1130.39 29.5094 1130.27 29.2449C1130.15 28.9804 1130.09 28.692 1130.1 28.4022C1130.1 27.5509 1130.51 26.9094 1131.31 26.4849C1131.94 26.1562 1132.93 25.896 1134.32 25.7066C1134.32 25.7066 1134.34 25.7049 1134.36 25.7023C1134.57 25.6799 1135.4 25.5896 1135.4 25.896L1135.39 28.813ZM1180.31 30.7113C1180.33 30.7153 1180.34 30.7194 1180.36 30.7235C1180.44 30.7421 1180.52 30.791 1180.57 30.8607C1180.61 30.9303 1180.64 31.0157 1180.62 31.1001L1180.21 34.1039C1180.21 34.1791 1180.17 34.2494 1180.12 34.3031C1180.07 34.3567 1180 34.3904 1179.92 34.3984C1179.9 34.4008 1179.87 34.4036 1179.84 34.4069C1179.26 34.4682 1177.48 34.6563 1176.21 34.0468C1175.6 33.7785 1175.08 33.3502 1174.69 32.8074C1174.68 32.7892 1174.67 32.7735 1174.65 32.7612C1174.63 32.749 1174.61 32.7405 1174.59 32.7363C1174.57 32.732 1174.55 32.7321 1174.53 32.7365C1174.5 32.7409 1174.48 32.7494 1174.47 32.7618C1173.82 33.232 1170.98 35.0626 1167.78 34.4691C1166.84 34.3076 1165.97 33.9039 1165.24 33.2982C1162.85 31.244 1162.69 26.8364 1165.04 24.6407C1165.62 24.1481 1166.29 23.755 1167 23.4766C1170.03 22.1596 1174.15 22.3558 1174.15 22.3558C1174.19 21.5661 1174.05 20.5573 1172.08 20.3792C1170.4 20.1999 1167.19 20.7912 1166.59 20.901L1166.56 20.9065C1166.49 20.9186 1166.43 20.9174 1166.36 20.9031C1166.3 20.8887 1166.23 20.8615 1166.18 20.8231C1166.13 20.7845 1166.08 20.7355 1166.04 20.6789C1166.01 20.6223 1165.99 20.5592 1165.98 20.4933L1165.03 17.6836C1165.01 17.5527 1165.04 17.4186 1165.12 17.3105C1165.2 17.2025 1165.31 17.129 1165.44 17.1061C1166.34 16.9646 1168.84 16.6062 1169.92 16.4898C1175.46 15.8299 1177.16 17.6622 1177.78 18.3334C1177.82 18.3749 1177.86 18.4119 1177.89 18.4437C1179.23 19.9592 1179.33 22.0956 1179.31 24.0198L1179.28 29.0413C1179.28 30.4758 1179.77 30.5875 1180.31 30.7113ZM1173.87 29.4704C1174.05 29.2946 1174.14 29.0588 1174.14 28.813V25.896C1174.14 25.5897 1173.32 25.6799 1173.11 25.7023C1173.09 25.7049 1173.07 25.7066 1173.07 25.7066C1171.67 25.896 1170.69 26.1562 1170.06 26.4849C1169.26 26.9094 1168.85 27.5509 1168.85 28.4022C1168.84 28.692 1168.9 28.9805 1169.02 29.245C1169.14 29.5096 1169.31 29.743 1169.54 29.9269C1171.22 31.1321 1173.33 30.0524 1173.87 29.4704Z" fill="#303330"/>
</g>
<defs>
<clipPath id="clip0_169_413">
<rect width="204" height="45" fill="white" transform="translate(0 0.5)"/>
</clipPath>
<clipPath id="clip1_169_413">
<rect width="207" height="26" fill="white" transform="translate(249.25 10)"/>
</clipPath>
<clipPath id="clip2_169_413">
<rect width="202" height="46" fill="white" transform="translate(501.5)"/>
</clipPath>
<clipPath id="clip3_169_413">
<rect width="202" height="32" fill="white" transform="translate(748.75 7)"/>
</clipPath>
<clipPath id="clip4_169_413">
<rect width="204" height="33" fill="white" transform="translate(996 6.5)"/>
</clipPath>
</defs>
</svg>
